<svg width="828" height="810" viewBox="0 0 828 810" fill="none" xmlns="http://www.w3.org/2000/svg">
<path fill-rule="evenodd" clip-rule="evenodd" d="M354.108 0.610772C263.687 8.28977 184.788 53.6788 132.471 128.117C98.5025 176.448 78.4404 247.576 82.5244 305.206C86.9014 366.99 109.249 424.157 149 475.258C153.767 481.385 159.884 488.473 162.595 491.008C167.453 495.552 167.618 495.617 174.327 495.617C188.977 495.617 259.947 497.713 294.108 499.154C338.86 501.042 378.329 503.78 416.608 507.653C459.287 511.971 474.084 513.826 539.608 523.078C621.557 534.65 641.11 536.923 659.608 537.029C673.443 537.108 675.604 536.887 679.73 534.98C689.049 530.671 695.573 522.828 699.643 511.037C704.12 498.069 714.301 456.162 718.088 435.117C720.416 422.176 721.158 400.607 719.66 389.403C717.848 375.846 710.039 346.178 699.583 313.117C694.538 297.167 685.299 267.467 679.052 247.117C660.903 188.001 656.716 176.704 645.319 156.117C628.809 126.293 611.722 103.742 588.451 81.0618C544.194 37.9298 487.979 10.7998 425.653 2.49477C409.027 0.278767 370.089 -0.746228 354.108 0.610772ZM425.608 23.9828C476.5 31.2218 524.295 52.2988 560.451 83.4488C580.459 100.686 595.16 116.837 609.304 137.117C615.902 146.577 629.781 169.298 631.164 172.903C631.759 174.452 620.841 174.588 474.956 174.843L318.108 175.117L311.608 177.341C292.399 183.912 275.872 200.99 271.139 219.159C269.339 226.069 269.143 239.32 270.729 246.818C273.475 259.797 282.444 274.005 294.25 284.079C305.763 293.902 333.723 312.006 366.108 330.608C396.072 347.819 417.762 357.194 438.108 361.73C443.943 363.031 463.987 365.107 495.108 367.635C571.387 373.83 591.086 375.428 624.608 378.138C641.933 379.538 663.737 381.344 673.062 382.151C682.387 382.957 691.897 383.617 694.196 383.617C697.668 383.617 698.486 383.997 699.032 385.867C700.414 390.595 700.809 411.438 699.691 420.617C697.229 440.823 688.913 476.682 681.833 497.617C678.561 507.291 677.591 509.169 675.721 509.444C674.497 509.624 662.383 507.517 648.802 504.762C624.658 499.865 608.803 496.837 585.608 492.694C573.488 490.529 525.971 483.244 516.608 482.114C513.583 481.75 505.033 480.611 497.608 479.583C490.183 478.556 477.133 477.013 468.608 476.154C460.083 475.295 451.083 474.382 448.608 474.126C390.278 468.082 334.434 465.45 225.174 463.595C171.524 462.684 166.069 462.439 164.326 460.862C160.35 457.264 140.803 426.564 133.925 413.117C118.747 383.442 109.648 356.162 105.074 326.617C102.859 312.31 102.02 277.701 103.543 263.398C110.686 196.277 142.881 134.025 192.542 91.3078C236.004 53.9248 284.838 31.2758 337.176 24.2268C343.739 23.3438 350.458 22.4318 352.108 22.2018C359.319 21.1948 415.599 22.5588 425.608 23.9828ZM647.293 213.617C650.729 223.792 658.535 248.317 664.64 268.117C670.746 287.917 678.915 314.242 682.794 326.617C690.092 349.898 693.623 361.935 693.26 362.298C693.145 362.413 688.563 362.08 683.079 361.556C677.595 361.033 664.558 359.954 654.108 359.16C643.658 358.365 626.108 357.018 615.108 356.167C604.108 355.315 568.195 352.577 535.301 350.081C502.408 347.585 473.608 345.316 471.301 345.039C436.081 340.808 421.307 336.363 392.108 321.213C362.218 305.704 317.149 277.53 306.121 267.459C286.148 249.222 284.205 223.798 301.522 207.281C307.887 201.209 313.719 197.858 321.108 196.024C324.996 195.06 361.135 194.821 483.577 194.95L641.045 195.117L647.293 213.617ZM324.602 210.491C313.439 214.154 306.608 223.31 306.608 234.609C306.608 241.766 308.127 245.861 312.726 251.098C317.53 256.57 324.575 259.595 332.542 259.607C340.503 259.619 345.879 257.216 351.476 251.144C362.815 238.843 359.271 220.197 344.108 212.38C339.763 210.14 328.884 209.087 324.602 210.491Z" fill="#F1F1F1"/>
<path d="M19.812 770V594.74H142.494V634.618H64.008V668.4H134.874V708.278H64.008V770H19.812ZM168.864 770V730.122H205.44V634.618H173.944V609.98L193.756 594.74H249.636V730.122H282.148V770H168.864Z" fill="#E10600"/>
<path d="M376.22 613.536V583.31H407.462V613.536H376.22ZM376.982 770V636.65H406.7V770H376.982ZM444.698 770V636.65H517.85C544.436 636.65 557.728 650.027 557.728 676.782V770H528.01V674.242C528.01 666.453 524.116 662.558 516.326 662.558H474.416V770H444.698ZM594.767 770V622.172C594.767 595.417 608.144 582.04 634.899 582.04H659.029L672.491 591.946V607.948H636.169C628.379 607.948 624.485 611.843 624.485 619.632V636.65H669.951V662.558H624.485V770H594.767ZM694.682 729.868V676.782C694.682 650.027 708.059 636.65 734.814 636.65H770.374C796.959 636.65 810.252 650.027 810.252 676.782V729.868C810.252 756.623 796.959 770 770.374 770H734.814C708.059 770 694.682 756.623 694.682 729.868ZM724.4 732.408C724.4 740.197 728.295 744.092 736.084 744.092H768.85C776.639 744.092 780.534 740.197 780.534 732.408V674.242C780.534 666.453 776.639 662.558 768.85 662.558H736.084C728.295 662.558 724.4 666.453 724.4 674.242V732.408Z" fill="#F1F1F1"/>
</svg>
